<?xml version="1.0" encoding="utf-8"?>
<!-- Generator: Adobe Illustrator 16.0.4, SVG Export Plug-In . SVG Version: 6.00 Build 0)  -->
<!DOCTYPE svg PUBLIC "-//W3C//DTD SVG 1.1//EN" "http://www.w3.org/Graphics/SVG/1.1/DTD/svg11.dtd">
<svg version="1.1" id="Layer_1" xmlns="http://www.w3.org/2000/svg" xmlns:xlink="http://www.w3.org/1999/xlink" x="0px" y="0px"
	 width="500px" height="150px" viewBox="0 0 500 150" enable-background="new 0 0 500 150" xml:space="preserve">
<path fill="#D10A11" d="M16.657,79.851c-1.955-2.555-2.402-5.325-2.402-8.853V34.746c-0.076-4.274-0.899-7.053-2.478-8.475h20.412
	c6.98,0,15.983,3.304,15.983,12.456c0,4.505-2.85,9.604-7.804,11.184c5.932,1.872,10.658,5.849,10.658,12.979
	c0,11.336-7.128,16.961-18.536,16.961H16.657z M30.091,47.434c5.549,0,8.177-4.433,8.177-8.708c0-5.026-3.075-7.582-8.853-7.582
	h-6.007c0.375,1.279,0.602,2.93,0.602,4.732v11.557H30.091z M29.113,74.973c7.88,0,11.557-3.671,11.557-11.707
	c0-6.603-4.129-10.958-9.831-10.958h-6.831v17.86c0,1.955,0.076,3.757,0.526,4.805H29.113z"/>
<path fill="#D10A11" d="M87.124,76.927c-2.248,1.872-6.451,3.827-11.93,3.827c-10.729,0-17.337-8.935-18.01-19.665
	C57.108,49.304,64.236,39.63,75.569,39.63c8.33,0,12.682,3.896,12.682,9.828c0,6.003-4.126,8.405-9.754,10.955
	c-1.729,0.828-10.432,5.03-10.432,7.283c0,3.301,2.778,8.774,7.128,8.774c3.901,0,6.605-2.397,8.855-6.151L87.124,76.927z
	 M67.39,61.315c0,0.302,0,0.678,0,0.978c1.425-1.729,3.602-3.154,5.854-4.729c3.525-2.402,6.227-4.131,6.227-8.631
	c0-3.078-1.875-5.03-4.652-5.03C69.792,43.902,67.39,53.661,67.39,61.315z"/>
<path fill="#D10A11" d="M96.585,70.246c2.628,3.827,5.251,6.225,8.255,6.225c3.302,0,5.252-2.245,5.252-5.547
	c0-3.529-2.098-6.383-7.126-9.906c-6.229-4.431-8.934-7.806-8.934-11.935c0-6.605,5.632-9.452,11.781-9.452
	c4.053,0,8.182,1.051,12.232,3.299l-2.923,6.753c-3.677-4.274-6.153-5.78-8.332-5.78c-2.476,0-3.977,1.505-3.977,3.753
	c0,2.476,1.801,4.431,5.777,7.13c6.08,4.053,10.432,8.03,10.432,14.109c0,7.133-6.525,11.859-13.812,11.859
	c-4.424,0-8.475-1.429-11.781-3.827L96.585,70.246z"/>
<path fill="#D10A11" d="M137.64,71.371c0,4.727,1.349,7.428,1.946,8.479h-8.701c-1.575-1.799-2.402-4.422-2.402-8.627V45.408h-5.33
	v-5.03c4.802,0,8.032-1.575,10.36-3.751c1.724-1.651,3.223-3.451,4.126-4.955v8.706h3.149c3.677,0,6.379,1.876,7.207,6.303
	c-1.95-1.123-4.804-1.272-6.98-1.272h-3.375V71.371z"/>
<path fill="#D10A11" d="M173.586,35.273c0-4.424-1.047-7.053-1.946-9.003h19.73c8.032,0,15.986,5.326,15.986,14.411
	c0,7.649-6.073,14.78-16.659,14.78h-7.354v15.462c0,4.274,1.13,6.977,2.103,8.927h-9.305c-1.65-1.799-2.476-4.422-2.554-8.627
	V35.273z M188.225,50.507c6.829,0,8.253-5.476,8.253-9.826c0-5.03-3.076-9.457-8.857-9.457h-4.957
	c0.452,1.273,0.677,2.85,0.677,4.652v14.63H188.225z"/>
<path fill="#D10A11" d="M219.896,40.377v4.203c1.876-2.326,4.504-4.95,8.032-4.95c3.223,0,5.251,1.349,6.524,2.773l-2.624,7.278
	c-1.803-2.248-4.053-4.049-6.607-4.049c-2.923,0-5.325,2.848-5.325,6.077v19.661c0,4.279,1.125,6.751,2.098,8.479h-8.931
	c-1.573-1.799-2.324-4.878-2.324-8.627V40.377H219.896z"/>
<path fill="#D10A11" d="M243.54,25.669c2.776,0,5.1,2.326,5.1,5.1c0,2.782-2.324,5.108-5.1,5.108c-2.78,0-5.104-2.326-5.104-5.108
	C238.436,27.995,240.76,25.669,243.54,25.669z M248.336,70.998c0,4.5,1.129,7.125,2.106,8.853h-8.931
	c-1.499-1.799-2.324-4.652-2.324-8.853v-30.62h9.148V70.998z"/>
<path fill="#D10A11" d="M285.937,76.775c-2.85,2.779-6.976,3.979-10.803,3.979c-10.812,0-19.439-7.358-19.439-20.562
	c0-10.658,6.607-20.493,18.835-20.562c3.454,0,7.055,0.525,11.034,2.024l-2.172,6.903c-1.808-2.098-4.127-4.655-8.706-4.655
	c-6.528,0-8.557,9.835-8.557,16.14c0,8.853,2.545,16.428,9.53,16.428c3.153,0,6.003-3.301,7.28-5.847L285.937,76.775z"/>
<path fill="#D10A11" d="M320.162,76.927c-2.25,1.872-6.45,3.827-11.933,3.827c-10.729,0-17.336-8.935-18.014-19.665
	c-0.074-11.783,7.059-21.459,18.388-21.459c8.332,0,12.684,3.896,12.684,9.828c0,6.003-4.126,8.405-9.756,10.955
	c-1.725,0.828-10.43,5.03-10.43,7.283c0,3.301,2.775,8.774,7.128,8.774c3.901,0,6.603-2.397,8.857-6.151L320.162,76.927z
	 M300.424,61.315c0,0.302,0,0.678,0,0.978c1.429-1.729,3.602-3.154,5.859-4.729c3.523-2.402,6.226-4.131,6.226-8.631
	c0-3.078-1.872-5.03-4.657-5.03C302.826,43.902,300.424,53.661,300.424,61.315z"/>
<g>
	<path fill="#D10A11" d="M412.822,98.095c5.525,0,10.722-2.154,14.622-6.055l59.19-59.193c4.122-4.12,4.122-10.821,0-14.941
		c-3.992-3.992-10.951-3.992-14.943,0l-58.869,58.864l-22.688-22.684c-2.003-1.996-4.657-3.095-7.477-3.095
		c-2.823,0-5.478,1.099-7.471,3.095c-4.123,4.122-4.123,10.825,0,14.943l23.005,23.001
		C402.094,95.937,407.289,98.091,412.822,98.095"/>
</g>
<g>
	<path fill="#5F5A59" d="M363.736,43.638h62.974l15.921-15.918h-79.329c-8.544,0-15.49,6.946-15.49,15.484v63.919
		c0,8.535,6.946,15.481,15.49,15.481h63.912c8.54,0,15.486-6.946,15.486-15.481v-0.435h-78.964V43.638z"/>
</g>
<g>
	<path fill="#5F5A59" d="M28.765,117.853l1.763,3.784c-1.749,1.463-4.029,2.193-6.838,2.193c-3.183,0-5.735-1.247-7.655-3.741
		c-1.577-2.035-2.466-4.544-2.667-7.526c-0.029-3.727,1.032-6.767,3.183-9.118c1.949-2.121,4.401-3.183,7.354-3.183
		c2.494,0,4.387,0.589,5.677,1.764c1.061,0.976,1.591,2.266,1.591,3.871c0,1.434-0.402,2.595-1.204,3.483
		c-0.803,0.889-2.265,1.821-4.387,2.796c-2.954,1.348-4.903,2.609-5.849,3.784c-0.086,0.086-0.129,0.215-0.129,0.387
		c0,0.173,0.014,0.302,0.043,0.388c0.659,3.097,2.122,4.645,4.387,4.645C25.783,121.379,27.36,120.204,28.765,117.853z
		 M23.475,102.714c-1.405,0-2.523,1.247-3.354,3.741c-0.603,1.864-0.903,3.942-0.903,6.236v0.56c0.458-0.573,1.577-1.477,3.354-2.71
		c1.376-0.946,2.265-1.662,2.667-2.15c0.602-0.774,0.903-1.705,0.903-2.796c0-0.859-0.244-1.555-0.731-2.086
		C24.922,102.979,24.277,102.714,23.475,102.714z"/>
	<path fill="#5F5A59" d="M59.386,118.196v-10.838c0-2.466-0.846-3.698-2.537-3.698c-1.548,0-2.854,0.788-3.914,2.365v12.214
		c0,0.976,0.114,1.936,0.344,2.882c0.229,0.946,0.53,1.678,0.903,2.193h-5.118c-0.918-1.061-1.376-2.753-1.376-5.075v-11.096
		c0-2.322-0.932-3.483-2.796-3.483c-1.262,0-2.408,0.745-3.44,2.236v12.343c0.028,2.064,0.387,3.757,1.075,5.075h-4.989
		c-0.889-1.061-1.333-2.753-1.333-5.075v-17.547h5.247v2.451c0.688-0.889,1.512-1.591,2.473-2.107
		c0.96-0.516,1.928-0.774,2.903-0.774c2.752,0,4.63,1.019,5.634,3.054c1.663-2.035,3.684-3.054,6.064-3.054
		c1.949,0,3.483,0.632,4.602,1.893c1.003,1.09,1.505,2.538,1.505,4.344v11.698c0.028,2.064,0.458,3.771,1.291,5.118h-5.161
		C59.845,122.254,59.386,120.548,59.386,118.196z"/>
	<path fill="#5F5A59" d="M70.783,95.188c0-0.803,0.287-1.491,0.86-2.064c0.573-0.573,1.261-0.86,2.064-0.86
		c0.802,0,1.49,0.287,2.064,0.86c0.573,0.573,0.86,1.262,0.86,2.064s-0.287,1.491-0.86,2.064c-0.574,0.573-1.262,0.859-2.064,0.859
		c-0.803,0-1.491-0.286-2.064-0.859C71.07,96.679,70.783,95.99,70.783,95.188z M76.46,100.692v17.547
		c0,1.95,0.401,3.642,1.204,5.075h-5.118c-0.889-1.061-1.333-2.753-1.333-5.075v-17.547H76.46z"/>
	<path fill="#5F5A59" d="M82.18,100.692h5.247v2.408c1.52-1.893,3.054-2.839,4.602-2.839s2.795,0.531,3.742,1.592l-1.591,4.172
		c-1.233-1.549-2.466-2.322-3.699-2.322c-0.889,0-1.649,0.387-2.279,1.161c-0.516,0.688-0.774,1.462-0.774,2.322v11.268
		c0,1.807,0.401,3.427,1.205,4.86h-5.118c-0.889-1.003-1.333-2.651-1.333-4.946V100.692z"/>
	<path fill="#5F5A59" d="M114.393,123.314h-5.118c-0.488-0.688-0.817-1.318-0.989-1.893c-0.43,0.66-1.197,1.226-2.301,1.699
		c-1.104,0.473-2.187,0.709-3.247,0.709c-2.064,0-3.67-0.602-4.817-1.806c-1.004-1.032-1.505-2.394-1.505-4.086
		c0-1.921,0.845-3.555,2.538-4.903c0.774-0.63,2.279-1.519,4.516-2.666c1.605-0.831,2.738-1.549,3.398-2.15
		c0.831-0.803,1.247-1.706,1.247-2.71v-0.301c-0.287-1.662-1.176-2.494-2.667-2.494c-0.832,0-1.613,0.272-2.344,0.816
		c-0.731,0.546-1.685,1.578-2.86,3.097l-1.72-3.913c2.522-1.635,4.96-2.452,7.312-2.452c4.989,0,7.483,2.28,7.483,6.839v11.526
		C113.318,120.462,113.676,122.024,114.393,123.314z M108.071,118.842v-8.387c-0.602,0.488-1.491,1.062-2.667,1.721
		c-1.348,0.803-2.294,1.612-2.838,2.43c-0.545,0.817-0.817,1.843-0.817,3.075c0,1.146,0.301,2.064,0.903,2.752
		c0.487,0.603,1.089,0.903,1.806,0.903C106.035,121.336,107.239,120.505,108.071,118.842z"/>
	<path fill="#5F5A59" d="M125.489,103.574v14.88c0,1.922,0.373,3.542,1.118,4.86h-4.989c-0.918-1.061-1.376-2.71-1.376-4.946
		v-14.794h-3.053v-2.882c2.121,0,4.014-0.917,5.677-2.753c0.688-0.773,1.204-1.52,1.548-2.236h1.075v4.989h1.075
		c2.724,0,4.344,1.376,4.86,4.129c-1.491-0.832-3.068-1.247-4.731-1.247H125.489z"/>
	<path fill="#5F5A59" d="M148.412,117.853l1.763,3.784c-1.749,1.463-4.029,2.193-6.838,2.193c-3.183,0-5.735-1.247-7.655-3.741
		c-1.577-2.035-2.466-4.544-2.667-7.526c-0.029-3.727,1.032-6.767,3.183-9.118c1.949-2.121,4.401-3.183,7.354-3.183
		c2.494,0,4.387,0.589,5.677,1.764c1.061,0.976,1.591,2.266,1.591,3.871c0,1.434-0.402,2.595-1.204,3.483
		c-0.803,0.889-2.265,1.821-4.387,2.796c-2.954,1.348-4.903,2.609-5.849,3.784c-0.086,0.086-0.129,0.215-0.129,0.387
		c0,0.173,0.014,0.302,0.043,0.388c0.659,3.097,2.122,4.645,4.387,4.645C145.429,121.379,147.006,120.204,148.412,117.853z
		 M143.122,102.714c-1.405,0-2.523,1.247-3.354,3.741c-0.603,1.864-0.903,3.942-0.903,6.236v0.56
		c0.458-0.573,1.577-1.477,3.354-2.71c1.376-0.946,2.265-1.662,2.667-2.15c0.602-0.774,0.903-1.705,0.903-2.796
		c0-0.859-0.244-1.555-0.731-2.086C144.569,102.979,143.924,102.714,143.122,102.714z"/>
	<path fill="#5F5A59" d="M154.863,121.637l1.807-3.827c1.634,2.38,3.21,3.569,4.73,3.569c0.917,0,1.648-0.286,2.194-0.86
		c0.544-0.573,0.817-1.347,0.817-2.322c0-1.003-0.316-1.941-0.946-2.816c-0.631-0.875-1.677-1.828-3.14-2.86
		c-1.835-1.318-3.147-2.501-3.935-3.548c-0.789-1.047-1.183-2.144-1.183-3.29c0-1.893,0.774-3.326,2.322-4.302
		c1.175-0.745,2.652-1.118,4.43-1.118c2.409,0,4.745,0.632,7.011,1.893l-1.678,3.871c-1.892-2.208-3.483-3.312-4.773-3.312
		c-0.688,0-1.241,0.193-1.656,0.58c-0.416,0.388-0.624,0.911-0.624,1.57s0.251,1.298,0.753,1.914
		c0.501,0.616,1.354,1.34,2.559,2.172c2.122,1.404,3.627,2.695,4.516,3.87c0.975,1.29,1.462,2.695,1.462,4.215
		c0,2.122-0.903,3.843-2.709,5.161c-1.462,1.09-3.198,1.634-5.204,1.634C159.121,123.83,156.87,123.1,154.863,121.637z"/>
	<path fill="#5F5A59" d="M173.313,120.734c0-0.774,0.286-1.448,0.86-2.021c0.573-0.573,1.248-0.86,2.021-0.86
		c0.831,0,1.548,0.279,2.15,0.839c0.602,0.559,0.903,1.24,0.903,2.043c0,0.889-0.294,1.627-0.882,2.215
		c-0.588,0.587-1.312,0.881-2.172,0.881c-0.803,0-1.484-0.301-2.043-0.902C173.592,122.325,173.313,121.594,173.313,120.734z"/>
	<path fill="#5F5A59" d="M198.859,118.024l1.72,3.526c-1.548,1.521-3.613,2.279-6.193,2.279c-3.441,0-6.208-1.161-8.301-3.483
		c-1.892-2.121-2.838-4.888-2.838-8.301c0-3.497,1.046-6.364,3.14-8.602c1.978-2.092,4.53-3.153,7.655-3.183
		c2.15,0,4.258,0.388,6.322,1.162l-1.247,3.956c-0.86-0.975-1.656-1.662-2.387-2.064c-0.731-0.401-1.599-0.602-2.602-0.602
		c-1.778,0-3.111,1.219-4,3.655c-0.602,1.663-0.903,3.526-0.903,5.591c0,2.982,0.473,5.305,1.419,6.968
		c0.946,1.634,2.293,2.451,4.042,2.451c0.745,0,1.505-0.315,2.279-0.946C197.741,119.803,198.372,119,198.859,118.024z"/>
	<path fill="#5F5A59" d="M214.6,123.83c-3.556,0-6.294-1.29-8.215-3.87c-1.577-2.093-2.365-4.716-2.365-7.871
		c0-3.784,1.061-6.766,3.183-8.945c1.863-1.921,4.301-2.882,7.311-2.882c3.441,0,6.136,1.263,8.086,3.785
		c1.634,2.122,2.451,4.803,2.451,8.042c0,3.585-1.061,6.495-3.183,8.731C219.976,122.827,217.553,123.83,214.6,123.83z
		 M214.6,121.379c1.691,0,2.924-1.261,3.699-3.784c0.487-1.577,0.745-3.441,0.774-5.592v-1.032c0-5.447-1.462-8.199-4.387-8.257
		c-1.75-0.028-3.025,1.032-3.828,3.183c-0.574,1.52-0.86,3.47-0.86,5.849c-0.029,2.553,0.329,4.731,1.075,6.537
		C211.875,120.347,213.052,121.379,214.6,121.379z"/>
	<path fill="#5F5A59" d="M253.521,118.196v-10.838c0-2.466-0.846-3.698-2.537-3.698c-1.548,0-2.854,0.788-3.914,2.365v12.214
		c0,0.976,0.114,1.936,0.344,2.882c0.229,0.946,0.53,1.678,0.903,2.193H243.2c-0.918-1.061-1.376-2.753-1.376-5.075v-11.096
		c0-2.322-0.932-3.483-2.796-3.483c-1.262,0-2.408,0.745-3.44,2.236v12.343c0.028,2.064,0.387,3.757,1.075,5.075h-4.989
		c-0.889-1.061-1.333-2.753-1.333-5.075v-17.547h5.247v2.451c0.688-0.889,1.512-1.591,2.473-2.107
		c0.96-0.516,1.928-0.774,2.903-0.774c2.752,0,4.63,1.019,5.634,3.054c1.663-2.035,3.684-3.054,6.064-3.054
		c1.949,0,3.484,0.632,4.602,1.893c1.004,1.09,1.506,2.538,1.506,4.344v11.698c0.027,2.064,0.457,3.771,1.289,5.118h-5.16
		C253.98,122.254,253.521,120.548,253.521,118.196z"/>
	<path fill="#5F5A59" d="M265.95,132.562h-4.473l11.612-42.406h4.473L265.95,132.562z"/>
	<path fill="#5F5A59" d="M281.132,95.188c0-0.803,0.286-1.491,0.86-2.064c0.573-0.573,1.262-0.86,2.064-0.86
		c0.802,0,1.49,0.287,2.064,0.86c0.573,0.573,0.86,1.262,0.86,2.064s-0.287,1.491-0.86,2.064c-0.574,0.573-1.263,0.859-2.064,0.859
		c-0.803,0-1.491-0.286-2.064-0.859C281.418,96.679,281.132,95.99,281.132,95.188z M286.809,100.692v17.547
		c0,1.95,0.401,3.642,1.205,5.075h-5.118c-0.89-1.061-1.333-2.753-1.333-5.075v-17.547H286.809z"/>
	<path fill="#5F5A59" d="M293.304,100.692h5.246v2.451c1.691-1.921,3.613-2.882,5.764-2.882c2.007,0,3.627,0.66,4.859,1.979
		c1.032,1.118,1.549,2.51,1.549,4.172v11.827c0,1.979,0.401,3.671,1.204,5.075h-5.075c-0.918-1.061-1.376-2.71-1.376-4.946v-11.182
		c0-2.351-1.032-3.526-3.097-3.526c-0.774,0-1.513,0.208-2.215,0.623c-0.703,0.416-1.24,0.968-1.613,1.656v12.3
		c0,1.95,0.401,3.642,1.205,5.075h-5.075c-0.918-1.061-1.376-2.753-1.376-5.075V100.692z"/>
</g>
</svg>
